<?xml version="1.0" encoding="utf-8"?>
<!-- Generator: Adobe Illustrator 21.1.0, SVG Export Plug-In . SVG Version: 6.00 Build 0)  -->
<svg version="1.1" id="Calque_1" xmlns="http://www.w3.org/2000/svg" xmlns:xlink="http://www.w3.org/1999/xlink" x="0px" y="0px"
	 viewBox="0 0 385 144" style="enable-background:new 0 0 385 144;" xml:space="preserve">
<style type="text/css">
	.st0{fill:#FFFFFF;}
	.st1{opacity:0.9;fill:#FFFFFF;enable-background:new    ;}
</style>
<g id="Calque_2">
	<g id="Calque_1-2">
		<rect x="6" y="6" class="st0" width="11.8" height="95.7"/>
		<path class="st0" d="M202.2,141.6h-10.5V45.4c2,0,3.9-0.2,5.8-0.6c2.1-0.6,4.7-1.5,4.7-1.5V141.6z"/>
		<path class="st0" d="M273,100.9h-10.5V8.4c2,0,3.9-0.2,5.8-0.6c2.1-0.6,4.7-1.5,4.7-1.5V100.9z"/>
		<path class="st0" d="M379.3,100.9h-10.5V8.4c2,0,3.9-0.2,5.8-0.6c2.1-0.6,4.7-1.5,4.7-1.5V100.9z"/>
		<path class="st0" d="M343.5,100.9H333V45.7c2,0,3.9-0.2,5.9-0.6c2.1-0.6,4.6-1.5,4.6-1.5L343.5,100.9z"/>
		<circle class="st0" cx="338.2" cy="22" r="5.6"/>
		<path class="st0" d="M289.8,46c0,0,10.1,0,10.1,14.8v40.1h11c0,0,0-30,0-40.1C310.9,59.5,311.6,46,289.8,46z"/>
		<path class="st0" d="M58.9,32.3c0,16.8-12.6,25.3-30.4,25.5c10.8-0.3,17.9-8.5,17.9-25.5C46.4,14,39.3,7,28.5,6.8
			C46.3,7,58.9,15.2,58.9,32.3z"/>
		<path class="st0" d="M243.5,71.9c0,19.1-14.3,28.7-34.6,29c12.3-0.3,20.3-9.6,20.3-29c0-20.7-8-28.7-20.3-29
			C229.2,43.2,243.5,52.6,243.5,71.9z"/>
		<path class="st0" d="M77.8,101H67.3V45.4c2,0,3.9-0.2,5.8-0.6c2.1-0.6,4.7-1.5,4.7-1.5V101z"/>
		<path class="st0" d="M86.6,43.3h-1.2c0,0,5.5,0.7,5.5,3.8s-5.5,2.8-5.5,7.7c0,3.8,2.7,5.3,6,5.3l0,0c3.3,0,6-2.7,6-6l0,0
			c0.1-5.8-4.6-10.6-10.4-10.7C86.8,43.3,86.7,43.3,86.6,43.3z"/>
		<path class="st1" d="M121.3,72.8c0,18.6,6.9,29.1,16.8,29.4c-16.3,0-29.4-13.2-29.4-29.4c0-16.3,13.2-29.4,29.4-29.4
			C128.2,43.6,121.3,51.9,121.3,72.8z"/>
		<path class="st1" d="M173.4,72.8c-0.1,16.2-13.2,29.3-29.3,29.4c9.9-0.3,16.3-9.8,16.3-29.4c0-21.1-6.4-29.2-16.3-29.4
			C160.2,43.5,173.3,56.6,173.4,72.8z"/>
	</g>
</g>
<g>
	<path class="st0" d="M101.1,113.4c0.9,0,2.8,0,4.1,1.1c1,0.8,1.6,2.1,1.6,3.5c0,2.2-1.4,3.1-1.9,3.3c1.1,0.2,1.8,0.7,2.2,1.1
		c1,1,1.2,2.3,1.2,3.2c0,1-0.3,2.4-1.4,3.4c-1.3,1.1-2.8,1.4-4.3,1.4h-5.7v-16.9H101.1z M100.2,120.4h0.9c0.5,0,2.6-0.1,2.6-2.2
		c0-1.5-1.2-2.1-2.5-2.1h-1V120.4z M100.2,127.6h1.4c0.6,0,1.5,0,2.3-0.5c0.8-0.5,1-1.3,1-1.9c0-0.5-0.2-1.4-1.2-1.9
		c-0.7-0.3-1.5-0.3-2.3-0.3h-1.2V127.6z"/>
	<path class="st0" d="M121.6,127.2c-0.3,0.8-1.6,3.4-5.4,3.4c-1.8,0-3.1-0.5-4.2-1.5c-1.2-1.1-1.7-2.6-1.7-4.3
		c0-2.2,0.9-3.5,1.7-4.3c1.3-1.3,2.8-1.5,4.1-1.5c2.2,0,3.5,0.9,4.3,1.8c1.2,1.4,1.3,3.1,1.3,4.3v0.3h-8.2c0,0.7,0.2,1.4,0.5,1.8
		c0.3,0.5,1,1,2.2,1c1.2,0,2-0.6,2.6-1.4L121.6,127.2z M118.8,123.4c-0.3-1.5-1.5-2.2-2.6-2.2c-1.1,0-2.3,0.7-2.6,2.2H118.8z"/>
	<path class="st0" d="M127.6,128.6l-5.2-9.3h3.6l3.4,6.2l3-6.2h3.5l-8.8,16.7h-3.5L127.6,128.6z"/>
	<path class="st0" d="M147.3,120.5c1.1,1,1.8,2.5,1.8,4.3c0,1.8-0.8,3.3-1.8,4.3c-0.9,0.9-2.4,1.5-4.4,1.5c-2.1,0-3.5-0.7-4.4-1.5
		c-1.1-1-1.8-2.5-1.8-4.3c0-1.8,0.8-3.3,1.8-4.3c0.9-0.9,2.4-1.5,4.4-1.5C145,119,146.4,119.7,147.3,120.5z M146,124.8
		c0-1.7-1.3-3.1-3.1-3.1c-1.8,0-3.1,1.4-3.1,3.1c0,1.7,1.3,3.1,3.1,3.1C144.7,127.9,146,126.5,146,124.8z"/>
	<path class="st0" d="M151.6,119.3h3.1v1.4c0.6-0.8,1.6-1.8,3.4-1.8c1,0,2.4,0.3,3.2,1.3c0.8,0.9,0.9,2,0.9,3.1v6.9h-3.1v-6
		c0-0.6,0-1.6-0.6-2.1c-0.5-0.5-1.1-0.6-1.4-0.6c-0.8,0-1.4,0.3-1.9,1c-0.5,0.7-0.5,1.5-0.5,2.1v5.6h-3.1V119.3z"/>
	<path class="st0" d="M173.5,111.8h3.1v18.4h-3.1v-1.4c-1.1,1.6-2.6,1.8-3.4,1.8c-3.4,0-5.6-2.6-5.6-5.8c0-3.2,2.2-5.8,5.4-5.8
		c0.8,0,2.5,0.2,3.5,1.8V111.8z M167.7,124.8c0,1.7,1.3,3.1,3,3.1c1.8,0,3-1.4,3-3.1s-1.3-3.1-3-3.1
		C169,121.7,167.7,123.1,167.7,124.8z"/>
</g>
<g>
	<path class="st0" d="M222.4,112c1.9,0,3.2,0.2,4.5,1.3c1.4,1.2,1.7,2.9,1.7,4.1c0,0.7-0.1,2.5-1.4,3.8c-0.9,0.9-2.3,1.5-4.3,1.5
		h-2.1v6.2h-3.3V112H222.4z M220.8,119.8h1.3c0.6,0,1.4,0,2.1-0.5c0.6-0.5,0.9-1.2,0.9-2c0-0.9-0.5-1.6-0.9-1.9
		c-0.7-0.5-1.5-0.5-2.3-0.5h-1.1V119.8z"/>
	<path class="st0" d="M230.6,110.4h3.1v8.9c0.6-0.8,1.6-1.8,3.4-1.8c1,0,2.4,0.3,3.2,1.3c0.8,0.9,0.9,2,0.9,3.1v6.9h-3.1v-6
		c0-0.6,0-1.6-0.6-2.1c-0.5-0.5-1.1-0.6-1.4-0.6c-0.8,0-1.4,0.3-1.9,1c-0.5,0.7-0.5,1.5-0.5,2.1v5.6h-3.1V110.4z"/>
	<path class="st0" d="M247.4,127.2l-5.2-9.3h3.6l3.4,6.2l3-6.2h3.5l-8.8,16.7h-3.5L247.4,127.2z"/>
	<path class="st0" d="M260.3,110.4v18.4h-3.1v-18.4H260.3z"/>
	<path class="st0" d="M271.6,117.9h3.1v11h-3.1v-1.4c-1.1,1.6-2.6,1.8-3.4,1.8c-3.4,0-5.6-2.6-5.6-5.8c0-3.2,2.2-5.8,5.4-5.8
		c0.8,0,2.5,0.2,3.5,1.8V117.9z M265.9,123.3c0,1.7,1.3,3.1,3,3.1c1.8,0,3-1.4,3-3.1s-1.3-3.1-3-3.1
		C267.1,120.3,265.9,121.6,265.9,123.3z"/>
	<path class="st0" d="M277.7,117.9h3.1v1.4c0.6-0.8,1.6-1.8,3.4-1.8c1,0,2.4,0.3,3.2,1.3c0.8,0.9,0.9,2,0.9,3.1v6.9h-3.1v-6
		c0-0.6,0-1.6-0.6-2.1c-0.5-0.5-1.1-0.6-1.4-0.6c-0.8,0-1.4,0.3-1.9,1c-0.5,0.7-0.5,1.5-0.5,2.1v5.6h-3.1V117.9z"/>
	<path class="st0" d="M294.3,120.5v8.3h-3.1v-8.3H290v-2.6h1.2v-3.7h3.1v3.7h2.1v2.6H294.3z"/>
	<path class="st0" d="M298,110.4h3.1v8.9c0.6-0.8,1.6-1.8,3.4-1.8c1,0,2.4,0.3,3.2,1.3c0.8,0.9,0.9,2,0.9,3.1v6.9h-3.1v-6
		c0-0.6,0-1.6-0.6-2.1c-0.5-0.5-1.1-0.6-1.4-0.6c-0.8,0-1.4,0.3-1.9,1c-0.5,0.7-0.5,1.5-0.5,2.1v5.6H298V110.4z"/>
	<path class="st0" d="M311.5,117.9h3.1v1.6c0.5-0.9,1.1-1.4,1.4-1.5c0.5-0.3,1.1-0.5,1.8-0.5c0.5,0,1,0.1,1.3,0.3l-0.4,2.9
		c-0.4-0.3-0.8-0.4-1.4-0.4c-0.6,0-1.4,0.1-2,0.9c-0.6,0.7-0.6,1.7-0.6,2.4v5.3h-3.1V117.9z"/>
	<path class="st0" d="M330.5,119.1c1.1,1,1.8,2.5,1.8,4.3c0,1.8-0.8,3.3-1.8,4.3c-0.9,0.9-2.4,1.5-4.4,1.5c-2.1,0-3.5-0.7-4.4-1.5
		c-1.1-1-1.8-2.5-1.8-4.3c0-1.8,0.8-3.3,1.8-4.3c0.9-0.9,2.4-1.5,4.4-1.5C328.2,117.5,329.6,118.2,330.5,119.1z M329.2,123.4
		c0-1.7-1.3-3.1-3.1-3.1c-1.8,0-3.1,1.4-3.1,3.1c0,1.7,1.3,3.1,3.1,3.1S329.2,125,329.2,123.4z"/>
	<path class="st0" d="M337.8,134.6h-3.1v-16.7h3.1v1.4c0.5-0.7,1.5-1.8,3.6-1.8c1,0,2.5,0.2,3.7,1.5c0.8,0.8,1.6,2.2,1.6,4.4
		c0,2.5-1.1,3.8-1.7,4.4c-0.8,0.8-2.1,1.4-3.7,1.4c-0.8,0-2.3-0.1-3.5-1.8V134.6z M338.6,121c-0.7,0.6-1,1.3-1,2.4
		c0,1,0.4,1.8,1,2.4c0.4,0.4,1.1,0.7,2,0.7c1,0,1.7-0.4,2.1-0.8c0.7-0.6,1-1.5,1-2.3s-0.3-1.7-0.9-2.3c-0.6-0.5-1.4-0.8-2.1-0.8
		C339.7,120.3,339.1,120.5,338.6,121z"/>
	<path class="st0" d="M352.7,127.2l-5.2-9.3h3.6l3.4,6.2l3-6.2h3.5l-8.8,16.7h-3.5L352.7,127.2z"/>
</g>
</svg>
